G75*
G70*
%OFA0B0*%
%FSLAX24Y24*%
%IPPOS*%
%LPD*%
%AMOC8*
5,1,8,0,0,1.08239X$1,22.5*
%
%ADD10C,0.0000*%
%ADD11R,0.0500X0.1187*%
%ADD12C,0.0680*%
%ADD13R,0.0592X0.0671*%
%ADD14R,0.0434X0.0395*%
%ADD15R,0.0513X0.0474*%
%ADD16R,0.0395X0.0395*%
%ADD17R,0.0474X0.0513*%
%ADD18R,0.0316X0.0946*%
%ADD19R,0.0395X0.0434*%
%ADD20C,0.0480*%
%ADD21C,0.0476*%
D10*
X000285Y006516D02*
X000285Y011324D01*
X010718Y011324D01*
X010718Y006516D01*
X000285Y006516D01*
D11*
X008848Y009234D03*
D12*
X009548Y009203D02*
X010148Y009203D01*
X010148Y008203D02*
X009548Y008203D01*
X009548Y007203D02*
X010148Y007203D01*
X001398Y007203D02*
X000798Y007203D01*
X000798Y008203D02*
X001398Y008203D01*
X001398Y009203D02*
X000798Y009203D01*
D13*
X001224Y010953D03*
X001972Y010953D03*
X007724Y010953D03*
X008472Y010953D03*
D14*
X002991Y009327D03*
X002991Y008579D03*
X002204Y008953D03*
D15*
X002598Y007538D03*
X002598Y006869D03*
X006098Y008619D03*
X006098Y009288D03*
X007348Y009288D03*
X007348Y008619D03*
X009848Y010369D03*
X009848Y011038D03*
D16*
X005143Y011078D03*
X004552Y011078D03*
D17*
X006013Y010703D03*
X006682Y010703D03*
X004432Y007016D03*
X003763Y007016D03*
D18*
X003598Y008180D03*
X004098Y008180D03*
X004598Y008180D03*
X005098Y008180D03*
X005098Y010227D03*
X004598Y010227D03*
X004098Y010227D03*
X003598Y010227D03*
D19*
X006348Y007847D03*
X006722Y007059D03*
X005974Y007059D03*
D20*
X005458Y007163D03*
X005538Y007723D03*
X005858Y008123D03*
X005538Y008523D03*
X005138Y009403D03*
X004338Y009403D03*
X004258Y008923D03*
X003218Y007643D03*
X003138Y008123D03*
X003153Y007128D03*
X002258Y008443D03*
X002338Y009403D03*
X002258Y010203D03*
X001218Y010363D03*
X004338Y007483D03*
X006018Y009803D03*
X008178Y010363D03*
X008738Y010363D03*
X008648Y007073D03*
X007218Y007083D03*
D21*
X005035Y006891D03*
M02*
