G75*
G70*
%OFA0B0*%
%FSLAX24Y24*%
%IPPOS*%
%LPD*%
%AMOC8*
5,1,8,0,0,1.08239X$1,22.5*
%
%ADD10C,0.0100*%
%ADD11C,0.0600*%
%ADD12R,0.0512X0.0591*%
%ADD13R,0.0354X0.0315*%
%ADD14R,0.0433X0.0394*%
%ADD15R,0.0315X0.0315*%
%ADD16R,0.0394X0.0433*%
%ADD17R,0.0236X0.0866*%
%ADD18R,0.0315X0.0354*%
%ADD19C,0.0160*%
%ADD20C,0.0400*%
%ADD21C,0.0320*%
%ADD22C,0.0396*%
D10*
X002598Y006869D02*
X002658Y006923D01*
X003153Y006923D01*
X003153Y007128D01*
X003633Y007191D02*
X003618Y007643D01*
X003618Y007723D01*
X003218Y007723D01*
X003218Y007643D01*
X003218Y007723D02*
X003058Y007723D01*
X002898Y007883D01*
X002338Y007883D01*
X001858Y008363D01*
X001858Y010843D01*
X001938Y010923D01*
X001972Y010953D01*
X004098Y010227D02*
X004098Y010203D01*
X004338Y009963D01*
X004338Y009403D01*
X005138Y009403D02*
X005138Y010203D01*
X005098Y010227D01*
X004658Y010283D02*
X004598Y010227D01*
X004578Y010283D01*
X004578Y011003D01*
X004552Y011078D01*
X005143Y011078D02*
X005218Y011083D01*
X006658Y011083D01*
X006658Y010763D01*
X006682Y010703D01*
X006013Y010703D02*
X005938Y010763D01*
X005538Y010763D01*
X005538Y008523D01*
X005458Y008443D01*
X005458Y007803D01*
X005538Y007723D01*
X005698Y007403D02*
X005458Y007163D01*
X005698Y007403D02*
X006178Y007403D01*
X006498Y007083D01*
X006658Y007083D01*
X006722Y007059D01*
X007218Y007083D02*
X007218Y008523D01*
X007298Y008603D01*
X007348Y008619D01*
X006098Y009288D02*
X006098Y009323D01*
X006018Y009403D01*
X006018Y009803D01*
X005098Y008180D02*
X005058Y008123D01*
X004495Y007083D01*
X004415Y007003D01*
X004432Y007016D01*
X004338Y007483D02*
X004578Y007723D01*
X004578Y008123D01*
X004598Y008180D01*
X003618Y008123D02*
X003618Y007723D01*
X003618Y008123D02*
X003598Y008180D01*
X003633Y007191D02*
X003763Y007016D01*
X002578Y007483D02*
X002598Y007538D01*
X002578Y007483D02*
X001138Y007483D01*
X001138Y007243D01*
X001098Y007203D01*
X005974Y007059D02*
X006018Y007003D01*
X008709Y008744D02*
X008976Y008744D01*
X008842Y008744D02*
X008842Y009144D01*
X008709Y009011D01*
D11*
X009548Y009203D02*
X010148Y009203D01*
X010148Y008203D02*
X009548Y008203D01*
X009548Y007203D02*
X010148Y007203D01*
X001398Y007203D02*
X000798Y007203D01*
X000798Y008203D02*
X001398Y008203D01*
X001398Y009203D02*
X000798Y009203D01*
D12*
X001224Y010953D03*
X001972Y010953D03*
X007724Y010953D03*
X008472Y010953D03*
D13*
X002991Y009327D03*
X002991Y008579D03*
X002204Y008953D03*
D14*
X002598Y007538D03*
X002598Y006869D03*
X006098Y008619D03*
X006098Y009288D03*
X007348Y009288D03*
X007348Y008619D03*
X009848Y010369D03*
X009848Y011038D03*
D15*
X005143Y011078D03*
X004552Y011078D03*
D16*
X006013Y010703D03*
X006682Y010703D03*
X004432Y007016D03*
X003763Y007016D03*
D17*
X003598Y008180D03*
X004098Y008180D03*
X004598Y008180D03*
X005098Y008180D03*
X005098Y010227D03*
X004598Y010227D03*
X004098Y010227D03*
X003598Y010227D03*
D18*
X006348Y007847D03*
X006722Y007059D03*
X005974Y007059D03*
D19*
X005785Y006703D02*
X005223Y006703D01*
X005035Y006891D01*
X005785Y006703D02*
X005910Y006828D01*
X005910Y007059D01*
X005974Y007059D01*
X006348Y007847D02*
X006338Y007883D01*
X006138Y008083D01*
X007298Y009243D01*
X007348Y009288D01*
X007378Y009323D01*
X007378Y010603D01*
X007698Y010923D01*
X007724Y010953D01*
X007698Y010843D01*
X008178Y010363D01*
X008338Y010203D01*
X008338Y009953D01*
X009098Y009953D01*
X009348Y010203D01*
X009348Y011038D01*
X009848Y011038D01*
X009785Y010328D02*
X009848Y010266D01*
X009848Y009203D01*
X009778Y009163D01*
X009058Y008443D01*
X009058Y007483D01*
X008648Y007073D01*
X006138Y008083D02*
X006098Y008123D01*
X005858Y008123D01*
X006098Y008123D02*
X006098Y008619D01*
X004258Y008363D02*
X004258Y008923D01*
X004258Y008363D02*
X004098Y008203D01*
X004098Y008180D01*
X003538Y009083D02*
X003538Y010203D01*
X002258Y010203D01*
X002338Y009403D02*
X002978Y009403D01*
X002991Y009327D01*
X003538Y009083D02*
X003058Y008603D01*
X002991Y008579D01*
X003058Y008523D01*
X003058Y008203D01*
X003138Y008123D01*
X002258Y008443D02*
X002258Y008923D01*
X002204Y008953D01*
X001138Y009243D02*
X001098Y009203D01*
X001138Y010363D02*
X001218Y010363D01*
X001138Y010843D02*
X001218Y010923D01*
X001224Y010953D01*
X003538Y010203D02*
X003598Y010227D01*
X003618Y010283D01*
X008472Y010953D02*
X008498Y010923D01*
X008738Y010683D01*
X008738Y010363D01*
D20*
X008738Y010363D03*
X008178Y010363D03*
X006018Y009803D03*
X005138Y009403D03*
X004338Y009403D03*
X004258Y008923D03*
X003218Y007643D03*
X003138Y008123D03*
X003153Y007128D03*
X002258Y008443D03*
X002338Y009403D03*
X002258Y010203D03*
X001218Y010363D03*
X004338Y007483D03*
X005458Y007163D03*
X005538Y007723D03*
X005858Y008123D03*
X005538Y008523D03*
X007218Y007083D03*
X008648Y007073D03*
D21*
X001138Y009243D02*
X001138Y010363D01*
X001138Y010843D01*
D22*
X005035Y006891D03*
M02*
