G75*
G70*
%OFA0B0*%
%FSLAX24Y24*%
%IPPOS*%
%LPD*%
%AMOC8*
5,1,8,0,0,1.08239X$1,22.5*
%
%ADD10C,0.0100*%
%ADD11C,0.0600*%
%ADD12R,0.0236X0.0630*%
%ADD13R,0.0394X0.0433*%
%ADD14R,0.0217X0.0472*%
%ADD15R,0.0512X0.0591*%
%ADD16C,0.0160*%
%ADD17C,0.0400*%
%ADD18C,0.0320*%
%ADD19C,0.0200*%
%ADD20C,0.0396*%
D10*
X001538Y006763D02*
X001098Y007203D01*
X001538Y006763D02*
X003458Y006763D01*
X003698Y007003D01*
X003763Y007016D01*
X003660Y007453D02*
X003473Y007378D01*
X003153Y007128D01*
X003218Y007643D02*
X003458Y007883D01*
X005378Y007883D01*
X005538Y007723D01*
X005138Y007483D02*
X005458Y007163D01*
X005138Y007483D02*
X004338Y007483D01*
X004258Y007483D01*
X003660Y007453D01*
X003698Y008523D02*
X003538Y008683D01*
X003472Y008691D01*
X003698Y008523D02*
X005538Y008523D01*
X005378Y009163D02*
X005778Y009163D01*
X006818Y008123D01*
X006818Y007723D01*
X006848Y007680D01*
X006898Y007643D01*
X006898Y007403D01*
X007218Y007083D01*
X008348Y007680D02*
X008418Y007723D01*
X009778Y007243D02*
X009848Y007203D01*
X008920Y009340D02*
X008653Y009340D01*
X008920Y009607D01*
X008920Y009674D01*
X008853Y009741D01*
X008720Y009741D01*
X008653Y009674D01*
X006848Y009727D02*
X006818Y009803D01*
X006018Y009803D01*
X004738Y009803D01*
X004338Y009403D01*
X005138Y009403D02*
X005378Y009163D01*
X003472Y009715D02*
X003458Y009723D01*
X003458Y010683D01*
X003472Y010703D01*
D11*
X001398Y009203D02*
X000798Y009203D01*
X000798Y008203D02*
X001398Y008203D01*
X001398Y007203D02*
X000798Y007203D01*
X009548Y007203D02*
X010148Y007203D01*
X010148Y008203D02*
X009548Y008203D01*
X009548Y009203D02*
X010148Y009203D01*
D12*
X008348Y009727D03*
X007848Y009727D03*
X007348Y009727D03*
X006848Y009727D03*
X006848Y007680D03*
X007348Y007680D03*
X007848Y007680D03*
X008348Y007680D03*
D13*
X004432Y007016D03*
X003763Y007016D03*
D14*
X003472Y008691D03*
X002724Y008691D03*
X002724Y009715D03*
X003098Y009715D03*
X003472Y009715D03*
D15*
X003472Y010703D03*
X002724Y010703D03*
D16*
X002578Y010683D01*
X002658Y010683D02*
X002724Y010703D01*
X003058Y010283D02*
X003058Y009723D01*
X003098Y009715D01*
X002724Y009715D02*
X002658Y009563D01*
X002658Y009243D01*
X003618Y009243D01*
X004578Y010203D01*
X007058Y010203D01*
X007298Y009963D01*
X007298Y009803D01*
X007348Y009727D01*
X007378Y009723D01*
X007378Y007803D01*
X007348Y007680D01*
X007378Y007723D01*
X007778Y007723D01*
X007848Y007680D01*
X008648Y007073D02*
X008258Y006683D01*
X006498Y006683D01*
X006498Y008123D01*
X005698Y008923D01*
X004258Y008923D01*
X003138Y008123D02*
X005858Y008123D01*
X005035Y006891D02*
X004870Y007016D01*
X004432Y007016D01*
X002724Y008691D02*
X002658Y008763D01*
X002658Y009243D01*
X002338Y009403D02*
X002578Y009643D01*
X002658Y009643D01*
X002724Y009715D01*
X002258Y010203D02*
X002258Y010363D01*
X001538Y009723D02*
X001858Y009403D01*
X001858Y008203D01*
X002018Y008203D01*
X002258Y008443D01*
X001858Y008203D02*
X001098Y008203D01*
X000818Y009723D02*
X001538Y009723D01*
X000818Y009723D02*
X000818Y010523D01*
X001458Y011163D01*
X007938Y011163D01*
X008738Y010363D01*
X008338Y010363D02*
X008178Y010363D01*
X008338Y010363D02*
X008338Y009803D01*
X008348Y009727D01*
X007858Y009723D02*
X007858Y009193D01*
X007858Y009723D02*
X007848Y009727D01*
D17*
X008178Y010363D03*
X008738Y010363D03*
X006018Y009803D03*
X005138Y009403D03*
X004338Y009403D03*
X004258Y008923D03*
X003218Y007643D03*
X003138Y008123D03*
X003153Y007128D03*
X002258Y008443D03*
X002338Y009403D03*
X002258Y010203D03*
X001218Y010363D03*
X004338Y007483D03*
X005458Y007163D03*
X005538Y007723D03*
X005858Y008123D03*
X005538Y008523D03*
X007218Y007083D03*
X008648Y007073D03*
D18*
X008418Y007723D02*
X009298Y007723D01*
X009778Y007243D01*
X009848Y008203D02*
X008848Y008203D01*
X007858Y009193D01*
X002578Y010683D02*
X002258Y010363D01*
X001218Y010363D01*
D19*
X002658Y010683D02*
X003058Y010283D01*
D20*
X005035Y006891D03*
M02*
