G75*
G70*
%OFA0B0*%
%FSLAX24Y24*%
%IPPOS*%
%LPD*%
%AMOC8*
5,1,8,0,0,1.08239X$1,22.5*
%
%ADD10C,0.0000*%
%ADD11C,0.0040*%
%ADD12C,0.0050*%
%ADD13C,0.0080*%
%ADD14C,0.0030*%
%ADD15C,0.0060*%
D10*
X000285Y006516D02*
X000285Y011324D01*
X010718Y011324D01*
X010718Y006516D01*
X000285Y006516D01*
D11*
X005248Y009973D02*
X005555Y009973D01*
X005401Y009973D02*
X005401Y010434D01*
X005555Y010280D01*
X005708Y010127D02*
X005708Y010434D01*
X005708Y010127D02*
X005862Y009973D01*
X006015Y010127D01*
X006015Y010434D01*
D12*
X005764Y010541D02*
X005581Y010541D01*
X005673Y010541D02*
X005673Y010908D01*
X005764Y010908D01*
X005950Y010908D02*
X006041Y010908D01*
X006225Y010724D01*
X006225Y010541D02*
X006225Y010908D01*
X006410Y010908D02*
X006502Y010816D01*
X006777Y010816D01*
X006962Y010908D02*
X007054Y010908D01*
X007238Y010724D01*
X007238Y010541D02*
X007238Y010908D01*
X007423Y010816D02*
X007423Y010724D01*
X007790Y010724D01*
X007790Y010632D02*
X007790Y010816D01*
X007698Y010908D01*
X007515Y010908D01*
X007423Y010816D01*
X007515Y010541D02*
X007698Y010541D01*
X007790Y010632D01*
X007976Y010632D02*
X007976Y010908D01*
X007976Y010632D02*
X008067Y010541D01*
X008159Y010632D01*
X008251Y010541D01*
X008343Y010632D01*
X008343Y010908D01*
X008528Y010816D02*
X008620Y010908D01*
X008803Y010908D01*
X008895Y010816D01*
X008895Y010632D01*
X008803Y010541D01*
X008620Y010541D01*
X008528Y010632D01*
X008528Y010816D01*
X009081Y010816D02*
X009172Y010724D01*
X009448Y010724D01*
X009448Y010541D02*
X009448Y011091D01*
X009172Y011091D01*
X009081Y010999D01*
X009081Y010816D01*
X006777Y010541D02*
X006777Y011091D01*
X006502Y011091D01*
X006410Y010999D01*
X006410Y010908D01*
X006502Y010816D02*
X006410Y010724D01*
X006410Y010632D01*
X006502Y010541D01*
X006777Y010541D01*
X005673Y011091D02*
X005673Y011183D01*
X005396Y010816D02*
X005396Y010632D01*
X005304Y010541D01*
X005029Y010541D01*
X004844Y010541D02*
X004844Y011091D01*
X004568Y010908D02*
X004844Y010724D01*
X004568Y010541D01*
X005029Y010908D02*
X005304Y010908D01*
X005396Y010816D01*
D13*
X006655Y009524D02*
X006655Y007872D01*
X008540Y007872D02*
X008540Y009524D01*
X008519Y008953D02*
X008489Y008951D01*
X008459Y008946D01*
X008430Y008937D01*
X008403Y008924D01*
X008377Y008909D01*
X008353Y008890D01*
X008332Y008869D01*
X008313Y008845D01*
X008298Y008819D01*
X008285Y008792D01*
X008276Y008763D01*
X008271Y008733D01*
X008269Y008703D01*
X008271Y008673D01*
X008276Y008643D01*
X008285Y008614D01*
X008298Y008587D01*
X008313Y008561D01*
X008332Y008537D01*
X008353Y008516D01*
X008377Y008497D01*
X008403Y008482D01*
X008430Y008469D01*
X008459Y008460D01*
X008489Y008455D01*
X008519Y008453D01*
D14*
X006233Y008468D02*
X005924Y008468D01*
X005863Y008530D01*
X005863Y008653D01*
X005924Y008715D01*
X006233Y008715D01*
X006171Y008837D02*
X006233Y008898D01*
X006233Y009022D01*
X006171Y009083D01*
X006109Y009083D01*
X006048Y009022D01*
X005986Y009083D01*
X005924Y009083D01*
X005863Y009022D01*
X005863Y008898D01*
X005924Y008837D01*
X006048Y008960D02*
X006048Y009022D01*
X004569Y009130D02*
X004507Y009068D01*
X004384Y009068D01*
X004322Y009130D01*
X004322Y009439D01*
X004201Y009377D02*
X004139Y009439D01*
X004016Y009439D01*
X003954Y009377D01*
X003954Y009315D01*
X004201Y009068D01*
X003954Y009068D01*
X004569Y009130D02*
X004569Y009439D01*
X004420Y007676D02*
X004235Y007676D01*
X004173Y007614D01*
X004173Y007491D01*
X004235Y007429D01*
X004420Y007429D01*
X004420Y007306D02*
X004420Y007676D01*
X004297Y007429D02*
X004173Y007306D01*
X004052Y007367D02*
X004052Y007491D01*
X003867Y007491D01*
X003805Y007429D01*
X003805Y007367D01*
X003867Y007306D01*
X003990Y007306D01*
X004052Y007367D01*
X004052Y007491D02*
X003928Y007614D01*
X003805Y007676D01*
X002146Y010656D02*
X002022Y010656D01*
X001961Y010717D01*
X001839Y010717D02*
X001777Y010656D01*
X001654Y010656D01*
X001592Y010717D01*
X001592Y010779D01*
X001654Y010841D01*
X001716Y010841D01*
X001654Y010841D02*
X001592Y010903D01*
X001592Y010964D01*
X001654Y011026D01*
X001777Y011026D01*
X001839Y010964D01*
X001961Y010964D02*
X002022Y011026D01*
X002146Y011026D01*
X002208Y010964D01*
X002208Y010717D01*
X002146Y010656D01*
D15*
X002538Y009522D02*
X002575Y009522D01*
X002538Y009522D02*
X002538Y008884D01*
X002575Y008884D01*
X002892Y008884D02*
X003303Y008884D01*
X003620Y008884D02*
X003657Y008884D01*
X003657Y009522D01*
X003620Y009522D01*
X003303Y009522D02*
X003266Y009522D01*
X002929Y009522D02*
X002892Y009522D01*
M02*
