G75*
G70*
%OFA0B0*%
%FSLAX24Y24*%
%IPPOS*%
%LPD*%
%AMOC8*
5,1,8,0,0,1.08239X$1,22.5*
%
%ADD10C,0.0000*%
%ADD11C,0.0060*%
%ADD12C,0.0050*%
%ADD13C,0.0040*%
%ADD14C,0.0030*%
%ADD15R,0.0098X0.0098*%
D10*
X000285Y006516D02*
X000285Y011324D01*
X010718Y011324D01*
X010718Y006516D01*
X000285Y006516D01*
D11*
X000598Y006953D02*
X000598Y007453D01*
X000848Y007703D01*
X000598Y007953D01*
X000598Y008453D01*
X000848Y008703D01*
X000598Y008953D01*
X000598Y009453D01*
X000848Y009703D01*
X001348Y009703D01*
X001598Y009453D01*
X001598Y008953D01*
X001348Y008703D01*
X001598Y008453D01*
X001598Y007953D01*
X001348Y007703D01*
X001598Y007453D01*
X001598Y006953D01*
X001348Y006703D01*
X000848Y006703D01*
X000598Y006953D01*
X001627Y009596D02*
X001627Y009810D01*
X001627Y009703D02*
X002268Y009703D01*
X002268Y009596D02*
X002268Y009810D01*
X002268Y010026D02*
X001627Y010026D01*
X002268Y010453D01*
X001627Y010453D01*
X008427Y009449D02*
X008427Y009022D01*
X008427Y008805D02*
X008961Y008805D01*
X009068Y008698D01*
X009068Y008484D01*
X008961Y008378D01*
X008427Y008378D01*
X008534Y008160D02*
X008427Y008053D01*
X008427Y007840D01*
X008534Y007733D01*
X008961Y007733D01*
X009068Y007840D01*
X009068Y008053D01*
X008961Y008160D01*
X008534Y008160D01*
X009348Y007953D02*
X009348Y008453D01*
X009598Y008703D01*
X009348Y008953D01*
X009348Y009453D01*
X009598Y009703D01*
X010098Y009703D01*
X010348Y009453D01*
X010348Y008953D01*
X010098Y008703D01*
X010348Y008453D01*
X010348Y007953D01*
X010098Y007703D01*
X010348Y007453D01*
X010348Y006953D01*
X010098Y006703D01*
X009598Y006703D01*
X009348Y006953D01*
X009348Y007453D01*
X009598Y007703D01*
X009348Y007953D01*
X009068Y009236D02*
X008427Y009236D01*
D12*
X009622Y009918D02*
X010073Y009918D01*
X010073Y009768D02*
X010073Y010068D01*
X009772Y009768D02*
X009622Y009918D01*
X001323Y009918D02*
X000872Y009918D01*
X001022Y009768D01*
X001323Y009768D02*
X001323Y010068D01*
D13*
X002342Y009524D02*
X002342Y009189D01*
X002342Y009524D02*
X002853Y009524D01*
X002853Y009091D02*
X002853Y008815D01*
X002853Y008382D02*
X002342Y008382D01*
X002342Y008717D01*
X002253Y007345D02*
X002253Y007105D01*
X002253Y007225D02*
X001892Y007225D01*
X002012Y007105D01*
X001892Y006977D02*
X001892Y006857D01*
X001892Y006917D02*
X002192Y006917D01*
X002253Y006857D01*
X002253Y006797D01*
X002192Y006737D01*
X005777Y007197D02*
X005777Y007709D01*
X006111Y007709D01*
X006584Y007709D02*
X006918Y007709D01*
X006918Y007197D01*
X006485Y007197D02*
X006210Y007197D01*
X008767Y007165D02*
X008827Y007105D01*
X008767Y007165D02*
X008767Y007285D01*
X008827Y007345D01*
X008887Y007345D01*
X009128Y007105D01*
X009128Y007345D01*
X009067Y006917D02*
X008767Y006917D01*
X008767Y006857D02*
X008767Y006977D01*
X009067Y006917D02*
X009128Y006857D01*
X009128Y006797D01*
X009067Y006737D01*
D14*
X007348Y007848D02*
X007101Y007848D01*
X007348Y008095D01*
X007348Y008157D01*
X007286Y008218D01*
X007163Y008218D01*
X007101Y008157D01*
X006979Y008157D02*
X006979Y007910D01*
X006918Y007848D01*
X006794Y007848D01*
X006733Y007910D01*
X006733Y008157D01*
X006794Y008218D01*
X006918Y008218D01*
X006979Y008157D01*
X006856Y007972D02*
X006979Y007848D01*
X006733Y008618D02*
X006362Y008618D01*
X006362Y008803D01*
X006424Y008865D01*
X006547Y008865D01*
X006609Y008803D01*
X006609Y008618D01*
X006609Y008742D02*
X006733Y008865D01*
X006671Y008987D02*
X006733Y009048D01*
X006733Y009172D01*
X006671Y009233D01*
X006547Y009233D01*
X006486Y009172D01*
X006486Y009110D01*
X006547Y008987D01*
X006362Y008987D01*
X006362Y009233D01*
X006322Y010006D02*
X006198Y010129D01*
X006260Y010129D02*
X006075Y010129D01*
X006075Y010006D02*
X006075Y010376D01*
X006260Y010376D01*
X006322Y010314D01*
X006322Y010191D01*
X006260Y010129D01*
X006443Y010191D02*
X006690Y010191D01*
X006628Y010006D02*
X006628Y010376D01*
X006443Y010191D01*
X007376Y010130D02*
X007438Y010068D01*
X007561Y010068D01*
X007623Y010130D01*
X007744Y010068D02*
X007991Y010068D01*
X007868Y010068D02*
X007868Y010439D01*
X007744Y010315D01*
X007623Y010377D02*
X007561Y010439D01*
X007438Y010439D01*
X007376Y010377D01*
X007376Y010130D01*
X007774Y009197D02*
X007712Y009135D01*
X007712Y009012D01*
X007774Y008950D01*
X007774Y008828D02*
X007712Y008767D01*
X007712Y008582D01*
X008083Y008582D01*
X007959Y008582D02*
X007959Y008767D01*
X007897Y008828D01*
X007774Y008828D01*
X007959Y008705D02*
X008083Y008828D01*
X008083Y008950D02*
X007836Y009197D01*
X007774Y009197D01*
X008083Y009197D02*
X008083Y008950D01*
X009025Y010332D02*
X009025Y010517D01*
X009086Y010578D01*
X009210Y010578D01*
X009272Y010517D01*
X009272Y010332D01*
X009272Y010455D02*
X009395Y010578D01*
X009333Y010700D02*
X009395Y010762D01*
X009395Y010885D01*
X009333Y010947D01*
X009272Y010947D01*
X009210Y010885D01*
X009210Y010823D01*
X009210Y010885D02*
X009148Y010947D01*
X009086Y010947D01*
X009025Y010885D01*
X009025Y010762D01*
X009086Y010700D01*
X009025Y010332D02*
X009395Y010332D01*
X005241Y007206D02*
X004994Y007206D01*
X005118Y007206D02*
X005118Y007576D01*
X004994Y007453D01*
X004873Y007576D02*
X004873Y007267D01*
X004811Y007206D01*
X004688Y007206D01*
X004626Y007267D01*
X004626Y007576D01*
X004128Y007318D02*
X003881Y007318D01*
X003759Y007318D02*
X003636Y007442D01*
X003698Y007442D02*
X003513Y007442D01*
X003513Y007318D02*
X003513Y007689D01*
X003698Y007689D01*
X003759Y007627D01*
X003759Y007503D01*
X003698Y007442D01*
X003881Y007565D02*
X004004Y007689D01*
X004004Y007318D01*
X003333Y007200D02*
X003271Y007200D01*
X003024Y007447D01*
X002962Y007447D01*
X002962Y007200D01*
X003024Y007078D02*
X003147Y007078D01*
X003209Y007017D01*
X003209Y006832D01*
X003209Y006955D02*
X003333Y007078D01*
X003333Y006832D02*
X002962Y006832D01*
X002962Y007017D01*
X003024Y007078D01*
X002974Y009723D02*
X002974Y010093D01*
X002851Y009970D01*
X002729Y010032D02*
X002729Y009785D01*
X002668Y009723D01*
X002544Y009723D01*
X002483Y009785D01*
X002483Y010032D01*
X002544Y010093D01*
X002668Y010093D01*
X002729Y010032D01*
X002606Y009847D02*
X002729Y009723D01*
X002851Y009723D02*
X003098Y009723D01*
X002991Y010818D02*
X002744Y010818D01*
X002991Y011065D01*
X002991Y011127D01*
X002929Y011189D01*
X002806Y011189D01*
X002744Y011127D01*
X002623Y011127D02*
X002561Y011189D01*
X002438Y011189D01*
X002376Y011127D01*
X002376Y010880D01*
X002438Y010818D01*
X002561Y010818D01*
X002623Y010880D01*
X003563Y010818D02*
X003749Y010818D01*
X003810Y010880D01*
X003810Y011127D01*
X003749Y011189D01*
X003563Y011189D01*
X003563Y010818D01*
X003932Y010818D02*
X004179Y010818D01*
X004055Y010818D02*
X004055Y011189D01*
X003932Y011065D01*
D15*
X004798Y011078D03*
M02*
